# xmcd
#
# Track frame offsets:
#	150
#	27823
#	55626
#	76769
#	97187
#	124414
#	156533
#	172323
#	188466
#	239187
#	259762
#	287200
#	305001
#
# Disc length: 4438 seconds
#
# Revision: 0
# Processed by: cddbd v1.4PL0 Copyright (c) Steve Scherf et al.
# Submitted via: dBpowerAMP V4.0
#
DISCID=bd11540d
DTITLE=Mr. Boogie Woogie and The Firesweep Bluesband - Live at the Pub
DYEAR=1900
DGENRE=
TTITLE0=Bad Day
TTITLE1=Get Out of here
TTITLE2=Woman Like You
TTITLE3=Swannee River Boogie
TTITLE4=If You Went Away
TTITLE5=Goodnight Irene
TTITLE6=She's a Fine, She's Mine
TTITLE7=Boogie Down Easy
TTITLE8=Backdoor Blues
TTITLE9=Trouble
TTITLE10=I'm Rich
TTITLE11=Lovin' On My Mind
TTITLE12=Holy Boogie
EXTD=
EXTT0=
EXTT1=
EXTT2=
EXTT3=
EXTT4=
EXTT5=
EXTT6=
EXTT7=
EXTT8=
EXTT9=
EXTT10=
EXTT11=
EXTT12=
PLAYORDER=
